<svg viewBox="0 0 640 400" data-background-color="#ffffff" preserveAspectRatio="xMidYMid meet" height="400" width="640" xmlns="http://www.w3.org/2000/svg" xmlns:xlink="http://www.w3.org/1999/xlink"><rect width="640" height="400" x="0" y="0" opacity="1" fill="#ffffff" data-fill-palette-color="background" id="background"></rect><g id="tight-bounds" transform="matrix(1,0,0,1,122.24000000000001,76.4)"><svg viewBox="0 0 395.52 247.2" height="247.2" width="395.52"><g><svg></svg></g><g><svg viewBox="0 0 395.52 247.2" height="247.2" width="395.52"><g><path d="M155.642 241.28l4.718-64.574 66.185 0-4.145 49.855c-0.088 0.92-0.285 1.84-0.592 2.76-0.263 0.92-0.986 1.643-2.168 2.168-0.088 0-0.723 0.219-1.905 0.657-1.183 0.438-2.738 1.007-4.665 1.709-1.927 0.657-4.161 1.38-6.702 2.168-2.584 0.745-5.322 1.424-8.214 2.037-4.818 1.095-9.002 2.168-12.55 3.22-3.592 1.095-6.79 2.081-9.593 2.956-2.76 0.92-5.322 1.643-7.687 2.169-2.322 0.526-4.665 0.788-7.031 0.788-1.621 0-2.957-0.416-4.008-1.248-1.095-0.876-1.643-2.431-1.643-4.665zM169.638 50.535c1.27-17.215 1.905-25.757 1.905-25.626 0.088-1.927 0.197-3.548 0.329-4.862 0.088-1.27 0.307-2.322 0.657-3.154 0.307-0.876 0.723-1.533 1.248-1.971 0.526-0.394 1.336-0.701 2.431-0.92l55.522-13.338c1.358-0.438 2.803-0.657 4.337-0.657 1.489 0 2.497 0.46 3.022 1.38 0.526 0.92 0.788 2.76 0.789 5.519-0.745 6.658-1.336 12.857-1.774 18.595-0.438 5.782-0.788 11.301-1.052 16.558-0.263 5.256-0.504 10.316-0.723 15.178-0.16 4.437-0.393 8.857-0.698 13.257l-67.495 0c0.573-7.694 1.073-14.347 1.502-19.959z" fill="#ed3b43" data-fill-palette-color="tertiary"></path></g><g transform="matrix(1,0,0,1,0,82.49163387510693)"><svg viewBox="0 0 395.52 82.21673224978613" height="82.21673224978613" width="395.52"><g><svg viewBox="0 0 395.52 82.21673224978613" height="82.21673224978613" width="395.52"><g><svg viewBox="0 0 395.52 82.21673224978613" height="82.21673224978613" width="395.52"><g><svg viewBox="0 0 395.52 82.21673224978613" height="82.21673224978613" width="395.52"><g><svg viewBox="0 0 395.52 82.21673224978613" height="82.21673224978613" width="395.52"><g><svg viewBox="0 0 395.52 82.21673224978613" height="82.21673224978613" width="395.52"><g transform="matrix(1,0,0,1,0,0)"><svg width="395.52" viewBox="3.390000104904175 -39.84000015258789 199.77000427246094 41.52000045776367" height="82.21673224978613" data-palette-color="#ed3b43"><path d="M3.39 0.78L3.39 0.78 4.61-15.92Q5.22-24.32 5.52-28.25 5.81-32.18 5.81-32.15L5.81-32.15Q5.83-32.59 5.86-32.89 5.88-33.18 5.96-33.37 6.03-33.57 6.15-33.67 6.27-33.76 6.52-33.81L6.52-33.81 14.97-35.84Q15.28-35.94 15.63-35.94L15.63-35.94Q15.97-35.94 16.09-35.73 16.21-35.52 16.21-34.89L16.21-34.89Q16.04-33.37 15.94-32.06 15.84-30.74 15.78-29.54 15.72-28.34 15.67-27.23 15.63-26.12 15.55-25.02L15.55-25.02Q15.41-23.83 15.3-22.63 15.19-21.44 15.09-20.15 14.99-18.87 14.88-17.44 14.77-16.02 14.62-14.33L14.62-14.33 13.55-1.46Q13.53-1.25 13.46-1.04 13.4-0.83 13.13-0.71L13.13-0.71Q13.11-0.71 12.84-0.61 12.57-0.51 12.13-0.35 11.69-0.2 11.11-0.02 10.52 0.15 9.86 0.29L9.86 0.29Q8.76 0.54 7.95 0.78 7.13 1.03 6.49 1.23 5.86 1.44 5.32 1.56 4.79 1.68 4.25 1.68L4.25 1.68Q3.88 1.68 3.64 1.49 3.39 1.29 3.39 0.78ZM46.85-27L44.55-3.03Q44.48-2.22 44.36-1.92 44.24-1.61 43.82-1.51L43.82-1.51Q41.75-0.93 39.49-0.33 37.23 0.27 35.1 1.25L35.1 1.25Q35.03 1.27 34.89 1.27L34.89 1.27Q34.69 1.27 34.65 1.17 34.62 1.07 34.62 0.95L34.62 0.95Q34.62 0.9 34.63 0.78 34.64 0.66 34.69 0.33 34.74 0 34.82-0.59 34.91-1.17 35.06-2.15L35.06-2.15Q32.32-0.37 30.21 0.45 28.1 1.27 26.46 1.27L26.46 1.27Q22.39 1.27 20.52-0.7 18.65-2.66 18.65-6.57L18.65-6.57Q18.65-7.28 18.67-8.02 18.7-8.76 18.82-9.55L18.82-9.55Q19.09-12.43 19.28-14.49 19.48-16.55 19.6-17.99 19.72-19.43 19.81-20.35 19.89-21.26 19.96-21.88 20.02-22.49 20.05-22.89 20.09-23.29 20.14-23.68L20.14-23.68Q20.24-24.46 20.32-24.78 20.41-25.1 20.87-25.2L20.87-25.2Q22.02-25.42 23.06-25.6 24.09-25.78 25.11-25.99 26.12-26.2 27.17-26.44 28.22-26.68 29.39-27.03L29.39-27.03Q29.44-27.03 29.49-27.04 29.54-27.05 29.59-27.05L29.59-27.05Q29.88-27.05 29.88-26.86L29.88-26.86 29.88-26.81Q29.78-25.98 29.71-25.24 29.64-24.51 29.56-23.74 29.49-22.97 29.4-22.09 29.32-21.22 29.2-20.06 29.07-18.9 28.9-17.38 28.73-15.87 28.49-13.87L28.49-13.87Q28.34-12.4 28.2-10.95 28.05-9.5 28.05-8.25L28.05-8.25Q28.05-7.57 28.15-6.99 28.24-6.42 28.5-6.02 28.76-5.62 29.17-5.4 29.59-5.18 30.25-5.18L30.25-5.18Q30.76-5.18 31.64-5.41 32.52-5.64 33.4-6.21 34.27-6.79 34.95-7.73 35.62-8.67 35.72-10.11L35.72-10.11Q35.89-12.52 36.02-14.15 36.15-15.77 36.25-16.88 36.35-17.99 36.42-18.75 36.5-19.51 36.56-20.2 36.62-20.9 36.67-21.69 36.72-22.49 36.77-23.68L36.77-23.68Q36.84-24.49 36.95-24.79 37.06-25.1 37.5-25.2L37.5-25.2Q39.72-25.63 42.04-26.09 44.36-26.54 46.58-27.25L46.58-27.25Q46.77-27.25 46.81-27.19 46.85-27.12 46.85-27L46.85-27ZM48.38-1.78L48.38-1.78Q48.7-2.42 49.04-3.21 49.38-4 49.68-4.93L49.68-4.93 50.34-6.54Q49.9-7.2 49.45-7.97 48.99-8.74 48.63-9.55 48.26-10.35 48.03-11.16 47.8-11.96 47.8-12.72L47.8-12.72Q47.8-12.77 48.18-12.81 48.55-12.84 49.13-12.87 49.7-12.89 50.37-12.9 51.04-12.92 51.62-12.93 52.19-12.94 52.57-12.95 52.95-12.96 52.95-12.96L52.95-12.96Q53.51-14.43 54.05-15.75 54.58-17.07 55.12-18.41 55.66-19.75 56.2-21.15 56.73-22.56 57.27-24.17L57.27-24.17Q58.3-27.2 59.27-29.49 60.25-31.79 61.1-33.76L61.1-33.76Q61.2-34.01 61.43-34.22 61.66-34.42 61.93-34.57 62.2-34.72 62.46-34.81 62.71-34.91 62.86-34.96L62.86-34.96Q62.96-34.99 63.61-35.18 64.25-35.38 65.08-35.6 65.91-35.82 66.73-35.99 67.55-36.16 68.04-36.16L68.04-36.16 68.48-36.16Q68.87-36.16 69.22-35.97 69.58-35.79 69.7-35.25L69.7-35.25Q70.87-32.25 72.2-28.7 73.53-25.15 74.8-20.87L74.8-20.87Q75.48-18.58 76.14-16.53 76.8-14.48 77.46-12.52 78.12-10.57 78.79-8.62 79.46-6.67 80.17-4.59L80.17-4.59Q80.39-3.71 80.62-3.2 80.85-2.69 81.05-2.39 81.25-2.1 81.37-1.97 81.49-1.83 81.49-1.68L81.49-1.68Q81.49-1.54 81.03-1.39L81.03-1.39 75.78 0.32Q75.19 0.54 74.58 0.76 73.97 0.98 73.43 1.15 72.9 1.32 72.49 1.43 72.09 1.54 71.92 1.54L71.92 1.54 71.77 1.54Q71.43 1.54 71.28 1.33 71.14 1.12 71.09 0.93L71.09 0.93Q70.84 0.12 70.6-0.52 70.36-1.17 70.12-1.82 69.89-2.47 69.66-3.2 69.43-3.93 69.21-4.93L69.21-4.93Q69.16-5.05 68.94-5.14 68.72-5.22 68.42-5.27 68.11-5.32 67.77-5.33 67.43-5.35 67.13-5.35L67.13-5.35Q66.21-5.35 65.63-5.33 65.06-5.32 64.62-5.31 64.18-5.3 63.78-5.29 63.37-5.27 62.79-5.27L62.79-5.27Q62.08-5.27 61.34-5.29 60.59-5.3 59.98-5.32L59.98-5.32 58.59-5.37Q57.95-3.61 57.32-2.08 56.68-0.54 55.95 1.1L55.95 1.1Q55.9 1.29 55.72 1.42 55.54 1.54 55.34 1.54L55.34 1.54Q55.2 1.54 55.17 1.51L55.17 1.51Q52.8 0.66 51.19-0.17 49.58-1 48.38-1.78ZM64.84-23.73L64.84-23.73Q64.25-21.56 63.68-19.79 63.11-18.02 62.63-16.65 62.15-15.28 61.81-14.34 61.47-13.4 61.32-12.89L61.32-12.89 61.32-12.67Q61.32-12.52 61.3-12.48L61.3-12.48 67.16-12.48Q66.89-13.67 66.58-14.89 66.28-16.11 65.99-17.46 65.69-18.8 65.4-20.34 65.11-21.88 64.84-23.73ZM109.71-0.78L103.78 0.88Q103.51 0.95 103.07 1.11 102.63 1.27 102.21 1.27L102.21 1.27Q101.87 1.27 101.62 1.1 101.36 0.93 101.36 0.51L101.36 0.51 101.36 0.37Q101.51-0.95 101.6-1.87 101.7-2.78 101.79-3.53 101.87-4.27 101.93-5.02 101.99-5.76 102.09-6.75 102.19-7.74 102.32-9.09 102.46-10.45 102.65-12.48L102.65-12.48Q102.78-13.72 102.87-15.01 102.97-16.31 102.97-17.41L102.97-17.41Q102.97-18.14 102.86-18.76 102.75-19.38 102.47-19.84 102.19-20.29 101.7-20.53 101.21-20.78 100.46-20.78L100.46-20.78Q99.89-20.78 98.91-20.53 97.92-20.29 96.94-19.73 95.96-19.17 95.21-18.25 94.45-17.33 94.35-15.99L94.35-15.99Q94.21-14.18 94.08-12.9 93.96-11.62 93.86-10.73 93.77-9.84 93.71-9.28 93.64-8.72 93.62-8.33L93.62-8.33Q93.6-8.23 93.55-7.79 93.5-7.35 93.44-6.74 93.38-6.13 93.32-5.44 93.25-4.76 93.19-4.15 93.13-3.54 93.1-3.1 93.06-2.66 93.06-2.56L93.06-2.56Q93.06-2.37 93.07-2.23 93.08-2.1 93.08-1.98L93.08-1.98Q93.08-1.78 92.9-1.65 92.72-1.51 92.08-1.34L92.08-1.34 85.61 0.88Q85.34 0.98 84.9 1.12 84.47 1.27 84.05 1.27L84.05 1.27Q83.71 1.27 83.45 1.1 83.2 0.93 83.2 0.51L83.2 0.51 85.42-24.44Q85.49-25.24 85.6-25.55 85.71-25.85 86.15-25.95L86.15-25.95Q88.37-26.39 90.72-26.84 93.06-27.29 95.28-28L95.28-28Q95.48-28 95.51-27.94 95.55-27.88 95.55-27.76L95.55-27.76Q95.55-27.71 95.54-27.61 95.52-27.51 95.46-27.17 95.4-26.83 95.29-26.14 95.18-25.44 94.99-24.19L94.99-24.19Q96.67-25.17 98.15-25.77 99.63-26.37 100.93-26.7 102.24-27.03 103.39-27.14 104.53-27.25 105.53-27.25L105.53-27.25Q108.98-27.25 110.54-25.16 112.1-23.07 112.1-18.9L112.1-18.9Q112.1-18.31 112.08-17.69 112.05-17.07 111.98-16.41L111.98-16.41 110.86-5.91Q110.73-4.88 110.71-4.02 110.69-3.15 110.69-2L110.69-2Q110.69-1.81 110.7-1.67 110.71-1.54 110.71-1.44L110.71-1.44Q110.71-1.22 110.53-1.1 110.34-0.98 109.71-0.78L109.71-0.78ZM116.42-10.35L116.42-10.35Q116.74-13.7 117.06-16.97 117.37-20.24 117.62-23.68L117.62-23.68Q117.67-24.49 117.78-24.79 117.89-25.1 118.32-25.2L118.32-25.2Q120.4-25.61 122.67-26.06 124.94-26.51 127.07-27.22L127.07-27.22Q127.14-27.25 127.28-27.25L127.28-27.25Q127.55-27.25 127.55-27.05L127.55-27.05 125.36-3.27Q125.28-2.47 125.19-2.16 125.09-1.86 124.65-1.76L124.65-1.76Q122.57-1.12 120.45-0.34 118.32 0.44 115.96 1.25L115.96 1.25Q115.88 1.27 115.74 1.27L115.74 1.27Q115.47 1.27 115.47 1.03L115.47 1.03Q115.47 1 115.52 0.37 115.57-0.27 115.65-1.27 115.74-2.27 115.83-3.52 115.93-4.76 116.04-6.01 116.15-7.25 116.25-8.4 116.35-9.55 116.42-10.35ZM118.25-29.83L118.25-29.83Q118.32-30.88 118.36-31.45 118.4-32.01 118.42-32.29 118.45-32.57 118.45-32.64 118.45-32.71 118.46-32.75 118.47-32.79 118.48-32.9 118.5-33.01 118.52-33.36 118.54-33.72 118.59-34.4 118.64-35.08 118.74-36.28L118.74-36.28Q118.79-37.08 118.9-37.39 119.01-37.7 119.45-37.79L119.45-37.79Q121.52-38.21 123.79-38.66 126.06-39.11 128.19-39.82L128.19-39.82Q128.26-39.84 128.41-39.84L128.41-39.84Q128.48-39.7 128.6-39.65L128.6-39.65 128.68-39.6 128.14-32.91Q128.07-32.1 127.96-31.79 127.85-31.47 127.43-31.4L127.43-31.4Q125.36-31.01 123.23-30.54 121.11-30.08 118.74-29.61L118.74-29.61Q118.67-29.59 118.52-29.59L118.52-29.59Q118.25-29.59 118.25-29.83ZM172.25-0.78L166.25 0.88Q165.98 0.95 165.54 1.11 165.1 1.27 164.68 1.27L164.68 1.27Q164.34 1.27 164.09 1.1 163.83 0.93 163.83 0.51L163.83 0.51 163.83 0.37Q164-1.42 164.12-2.53 164.25-3.64 164.32-4.32 164.39-5 164.44-5.36 164.49-5.71 164.54-6.02 164.59-6.32 164.62-6.69 164.66-7.06 164.73-7.73 164.81-8.4 164.92-9.51 165.03-10.62 165.2-12.43L165.2-12.43Q165.3-13.4 165.4-14.37 165.51-15.33 165.51-16.14L165.51-16.14Q165.51-17.16 165.4-18.01 165.3-18.85 165.01-19.45 164.73-20.04 164.25-20.39 163.76-20.73 163-20.73L163-20.73Q162.54-20.73 161.79-20.53 161.05-20.34 160.29-19.84 159.53-19.34 158.92-18.52 158.31-17.7 158.14-16.46L158.14-16.46 158.14-16.36Q157.85-13.57 157.62-11.54 157.38-9.5 157.21-8.03 157.04-6.57 156.93-5.59 156.82-4.61 156.75-3.94 156.68-3.27 156.64-2.83 156.6-2.39 156.6-2L156.6-2Q156.6-1.81 156.62-1.67 156.63-1.54 156.63-1.44L156.63-1.44Q156.63-1.25 156.45-1.11 156.26-0.98 155.63-0.78L155.63-0.78 149.89 0.88Q149.62 0.95 149.18 1.11 148.74 1.27 148.33 1.27L148.33 1.27Q147.99 1.27 147.73 1.1 147.47 0.93 147.47 0.51L147.47 0.51 147.47 0.37Q147.64-1.42 147.75-2.53 147.86-3.64 147.95-4.32 148.03-5 148.08-5.36 148.13-5.71 148.17-6.02 148.21-6.32 148.25-6.69 148.3-7.06 148.36-7.73 148.43-8.4 148.53-9.51 148.64-10.62 148.82-12.43L148.82-12.43Q148.91-13.4 149.02-14.37 149.13-15.33 149.13-16.14L149.13-16.14Q149.13-17.16 149.04-18.01 148.94-18.85 148.68-19.45 148.43-20.04 147.99-20.39 147.55-20.73 146.86-20.73L146.86-20.73Q146.37-20.73 145.53-20.48 144.69-20.24 143.85-19.68 143.01-19.12 142.36-18.2 141.71-17.29 141.61-15.94L141.61-15.94Q141.42-14.14 141.3-12.98 141.17-11.82 141.1-11.07 141.03-10.33 140.99-9.88 140.95-9.42 140.93-9.03L140.93-9.03Q140.91-8.94 140.86-8.48 140.81-8.03 140.75-7.41 140.69-6.79 140.62-6.07 140.56-5.35 140.51-4.72 140.47-4.1 140.43-3.65 140.39-3.2 140.39-3.1L140.39-3.1 140.39-2.66Q140.39-2.42 140.37-2.25 140.34-2.08 140.22-1.93 140.1-1.78 139.87-1.66 139.64-1.54 139.22-1.39L139.22-1.39 132.82 0.88Q132.56 0.98 132.12 1.12 131.68 1.27 131.26 1.27L131.26 1.27Q130.92 1.27 130.66 1.1 130.41 0.93 130.41 0.51L130.41 0.51 132.6-24.39Q132.68-25.2 132.79-25.5 132.9-25.81 133.34-25.9L133.34-25.9Q135.56-26.34 137.88-26.79 140.2-27.25 142.42-27.95L142.42-27.95Q142.61-27.95 142.65-27.89 142.69-27.83 142.69-27.71L142.69-27.71 142.37-24.15Q143.27-24.61 144.4-25.16 145.52-25.71 146.75-26.17 147.99-26.64 149.27-26.94 150.55-27.25 151.77-27.25L151.77-27.25Q153.45-27.25 154.88-26.48 156.31-25.71 157.24-23.93L157.24-23.93Q158.34-24.63 159.57-25.24 160.8-25.85 162.08-26.29 163.37-26.73 164.66-26.98 165.95-27.22 167.18-27.22L167.18-27.22Q168.71-27.22 170.08-26.78 171.45-26.34 172.46-25.34 173.47-24.34 174.06-22.74 174.65-21.14 174.65-18.85L174.65-18.85Q174.65-18.26 174.62-17.64 174.6-17.02 174.52-16.36L174.52-16.36 173.4-5.91Q173.28-4.88 173.25-4.02 173.23-3.15 173.23-2L173.23-2Q173.23-1.81 173.24-1.67 173.25-1.54 173.25-1.44L173.25-1.44Q173.25-1.22 173.07-1.1 172.89-0.98 172.25-0.78L172.25-0.78ZM192.88-27.25L192.88-27.25Q195.2-27.25 197.09-26.38 198.98-25.51 200.34-24.13 201.69-22.75 202.43-21.04 203.16-19.34 203.16-17.63L203.16-17.63Q203.16-16.11 202.23-14.59 201.3-13.06 199.63-11.84 197.96-10.62 195.61-9.86 193.27-9.11 190.46-9.11L190.46-9.11Q189-9.11 187.39-9.4L187.39-9.4Q187.49-8.35 188-7.59 188.51-6.84 189.29-6.35 190.07-5.86 191.06-5.63 192.05-5.4 193.1-5.4L193.1-5.4Q194.27-5.4 195.36-5.6 196.44-5.81 197.45-6.15 198.45-6.49 199.37-6.91 200.3-7.32 201.13-7.74L201.13-7.74Q201.35-7.79 201.51-7.82 201.67-7.86 201.82-7.86L201.82-7.86Q201.82-7.86 201.8-7.47 201.79-7.08 201.79-6.37 201.79-5.66 201.78-4.66 201.77-3.66 201.74-2.44L201.74-2.44Q201.82-2.32 201.84-2.2 201.86-2.08 201.86-2L201.86-2Q201.86-1.71 201.33-1.37 200.79-1.03 199.92-0.66 199.06-0.29 197.95 0.05 196.84 0.39 195.69 0.67 194.54 0.95 193.47 1.11 192.39 1.27 191.59 1.27L191.59 1.27Q188.95 1.27 186.47 0.35 183.99-0.56 182.08-2.27 180.16-3.98 179.01-6.42 177.87-8.86 177.87-11.91L177.87-11.91Q177.87-15.11 178.96-17.91 180.06-20.7 182.05-22.78 184.04-24.85 186.8-26.05 189.56-27.25 192.88-27.25ZM192.59-20.75L192.59-20.75Q191.59-20.75 190.74-20.32 189.9-19.9 189.21-19.1 188.51-18.31 188-17.2 187.49-16.09 187.17-14.75L187.17-14.75Q189.68-15.19 191.34-15.67 193-16.16 194-16.66 195-17.16 195.42-17.66 195.83-18.16 195.83-18.63L195.83-18.63Q195.83-19.07 195.51-19.46 195.18-19.85 194.69-20.14 194.2-20.43 193.63-20.59 193.05-20.75 192.59-20.75Z" opacity="1" transform="matrix(1,0,0,1,0,0)" fill="#ed3b43" class="undefined-text-0" data-fill-palette-color="primary" id="text-0"></path></svg></g></svg></g></svg></g></svg></g><g></g></svg></g></svg></g></svg></g></svg></g></svg><rect width="395.52" height="247.2" fill="none" stroke="none" visibility="hidden"></rect></g><defs></defs></svg>